<?xml version="1.0" encoding="utf-8" ?><svg xmlns="http://www.w3.org/2000/svg" xmlns:xlink="http://www.w3.org/1999/xlink" width="241" height="62" viewBox="0 0 241 62"><path fill="#151515" d="M0 0L241 0L241 62L0 62L0 0Z"/><path fill="#FEC103" d="M22.6718 14.3398C30.1941 13.9581 38.3024 14.45 45.8769 14.3061C47.7875 14.2698 51.2542 15.5299 51.4374 17.7559C52.102 25.8293 51.7323 34.2187 51.6618 42.3358C51.635 45.3291 50.1291 47.0075 47.2727 47.6708C43.733 47.8485 38.4235 47.9097 34.8851 47.7269C30.7011 47.2031 18.0307 50.0354 18.317 42.7865C18.6317 34.8168 17.6065 25.1084 18.569 17.4347L18.6031 17.3786C19.6624 15.6516 20.7456 14.7998 22.6718 14.3398Z"/><path fill="#151515" d="M28.2805 17.649C32.1263 17.8741 37.715 17.6971 41.6908 17.6764C41.594 21.5051 41.5701 25.3353 41.619 29.1649C40.8418 29.5095 30.1189 29.3087 28.3725 29.2896C28.3383 25.2431 28.4474 21.7861 28.2805 17.649Z"/><path fill="#151515" d="M28.2825 32.6539C32.0174 32.8873 37.7876 32.7023 41.6759 32.7031C41.574 36.5669 41.5606 40.4326 41.6358 44.297L28.3626 44.3022C28.4427 40.2369 28.4388 36.7135 28.2825 32.6539Z"/><path fill="#030301" d="M45.069 32.6546L48.3005 32.7384L48.2848 36.8014L45.0419 36.7739L45.069 32.6546Z"/><path fill="#030301" d="M45.0581 25.1684L48.3203 25.2203L48.2694 29.2994L45.0772 29.293C45.0378 27.9672 45.0622 26.5059 45.0581 25.1684Z"/><path fill="#030301" d="M21.7617 32.7069L24.9688 32.6858L24.9198 36.836C23.9563 36.7733 22.6965 36.7869 21.7066 36.7674L21.7617 32.7069Z"/><path fill="#030301" d="M21.7294 25.2125L24.9796 25.1987C24.9807 26.5448 24.9227 27.9959 24.8937 29.3509C23.8886 29.2933 22.7479 29.294 21.73 29.2706L21.7294 25.2125Z"/><path fill="#030301" d="M45.0418 40.1741L48.3836 40.2436C48.3309 41.7057 48.3382 42.6461 47.9462 44.0762C46.784 44.3409 46.2383 44.6167 45.2507 43.8917C44.84 43.0515 45.0137 41.1896 45.0418 40.1741Z"/><path fill="#030301" d="M24.2116 17.5348C25.3885 17.9971 25.2872 20.3764 24.6329 21.4395C23.7611 21.9979 23.6505 21.7956 22.4378 21.7716C22.2271 21.7745 21.9819 21.6138 21.7885 21.5091C21.2455 20.337 21.6664 18.5811 22.7703 17.8388C22.9099 17.7449 23.9657 17.5802 24.2116 17.5348Z"/><path fill="#030301" d="M21.7202 40.2187L24.9829 40.1966C25.0103 41.6513 24.9021 42.9605 24.7963 44.4065C21.3176 44.3137 21.669 43.2368 21.7202 40.2187Z"/><path fill="#030301" d="M45.3161 17.5903C45.606 17.6136 45.8957 17.6409 46.1849 17.6723C48.9029 17.9725 48.4287 19.6422 48.1893 21.77L45.033 21.765C45.0474 20.6073 44.9297 18.5864 45.3161 17.5903Z"/><path fill="#FEC103" d="M133.809 35.1054C134.336 35.3258 134.185 35.1947 134.45 35.7285C132.148 41.9294 124.2 43.2471 119.854 38.7514C118.273 37.0906 117.419 34.8685 117.479 32.5762C117.636 24.4668 126.807 21.0031 132.638 26.4189C134.831 28.4565 134.838 31.2054 134.772 34.0078L130.361 34.0289C131.217 34.2003 134.221 34.2712 134.6 34.5487L134.482 34.8601L133.809 35.1054Z"/><path fill="#030301" d="M128.808 35.2578L128.784 35.284C128.122 36.0097 127.365 36.8358 126.314 36.8492C124.993 36.8661 123.412 35.8463 123.372 34.4328C124.306 33.6569 128.877 33.9999 130.361 34.0289C131.217 34.2003 134.221 34.2712 134.6 34.5487L134.482 34.8601L133.809 35.1054C132.802 35.2556 129.956 35.2388 128.808 35.2578Z"/><path fill="#030301" d="M125.53 28.2615C126.844 28.2441 128.593 28.802 129.096 30.1344C128.987 30.4516 128.999 30.6021 128.745 30.7677L128.709 30.7907C128.277 31.0722 127.238 30.9677 126.687 30.9466C126.381 30.9585 126.074 30.968 125.767 30.9753C124.835 30.9959 124.17 31.1145 123.486 30.4603L123.495 29.9056C124.053 29.0741 124.672 28.7778 125.53 28.2615Z"/><path fill="#FEC103" d="M170.807 35.1017C171.487 35.2713 171.41 35.1372 171.748 35.6005C170.677 41.6454 161.56 43.1528 157.312 38.8613C155.707 37.227 154.822 35.0188 154.854 32.7283C154.916 24.5453 163.889 20.9896 169.897 26.3553C172.068 28.2946 172.305 31.2251 172.273 33.9956C169.987 33.9756 162.419 33.8016 160.441 34.2099C162.467 34.3001 171.305 33.876 172.21 34.5247L172.053 34.873C171.787 34.906 170.975 34.9736 170.807 35.1017Z"/><path fill="#030301" d="M160.441 34.2099C162.467 34.3001 171.305 33.876 172.21 34.5247L172.053 34.873C171.787 34.906 170.975 34.9736 170.807 35.1017C169.873 35.2462 167.232 35.2407 166.159 35.261C164.011 37.675 161.39 37.5358 160.441 34.2099Z"/><path fill="#030301" d="M163.012 28.2361C164.296 28.2477 166.616 28.9606 166.263 30.5582C165.731 31.0596 164.952 30.9548 164.211 30.9517C163.046 30.9995 161.537 31.2875 160.734 30.3405L160.819 29.7942C161.479 28.9922 162.097 28.7269 163.012 28.2361Z"/><path fill="#FEC103" d="M220.021 35.2192C218.256 39.3668 216.303 41.2222 211.518 41.3349C203.414 41.5258 200.164 31.6716 205.417 26.2031C208.511 23.1167 214.938 23.1296 217.945 26.3182C220.087 28.5888 220.304 31.0997 220.245 34.0058C217.7 33.9849 215.155 33.9977 212.611 34.0443C212.835 34.0908 220.081 34.5401 219.914 34.5761C218.685 34.965 216.934 34.9141 216.568 35.1733C217.058 35.2476 219.394 35.216 220.021 35.2192Z"/><path fill="#030301" d="M216.568 35.1733C215.126 35.2471 214.803 35.0254 213.584 35.9523C212.034 37.1308 209.917 37.2379 208.786 35.3891C208.711 34.6604 208.65 34.9133 209.114 34.2862C210.029 33.7779 211.52 33.9887 212.611 34.0443C212.835 34.0908 220.081 34.5401 219.914 34.5761C218.685 34.965 216.934 34.9141 216.568 35.1733Z"/><path fill="#030301" d="M211.015 28.2384C212.251 28.2355 213.866 28.768 214.361 30.01C214.249 30.3454 214.251 30.5448 213.99 30.7169L213.954 30.7403C213.519 31.0258 212.464 30.9543 211.908 30.9497C211.432 30.9719 210.954 30.9871 210.477 30.9952C209.499 31.006 209.355 30.9521 208.73 30.3411L208.833 29.7868C209.481 28.9937 210.112 28.7224 211.015 28.2384Z"/><path fill="#FEC103" d="M74.2075 19.7892C80.4663 18.9471 84.5503 21.0313 86.8742 26.9621C84.9058 27.0731 82.8152 27.0112 80.8341 26.9854C75.8477 21.555 70.4486 26.0979 71.5421 31.7753C73.279 40.7931 80.9602 33.766 81.6875 33.6572L86.9927 33.7746C81.0304 48.8727 59.6045 39.1661 67.2582 24.6164C68.6724 21.9281 71.3687 20.513 74.2075 19.7892Z"/><path fill="#FEC103" d="M98.4694 24.0265C99.6813 23.9933 103.32 23.7028 104.04 24.368L103.872 25.5385C104.367 25.9123 106.598 23.8987 108.502 23.8938C117.534 23.8706 115.696 34.184 115.535 41.0133C113.652 41.0306 111.725 41.0021 109.838 40.9958C109.945 39.874 109.916 37.8194 109.931 36.6303C109.928 35.9061 111.215 25.6275 105.096 29.1895C103.48 30.1303 104.024 38.3359 104.051 41.0094L98.4526 41.0174L98.4694 24.0265Z"/><path fill="#FEC103" d="M191.454 34.072C189.767 33.7077 187.335 32.5402 186.902 30.676C185.549 24.802 193.588 22.2736 197.807 24.6943C200.053 25.9829 200.625 27.6673 201.263 29.9773C199.832 29.9782 198.917 29.9909 197.48 30.1589C198.552 30.3376 199.393 30.3467 200.467 30.3729C199.954 30.6663 198.528 31.4219 198 31.6734C199.326 32.3546 200.794 33.3279 201.101 34.7673C202.401 40.855 193.889 42.7813 189.744 40.4084C187.413 39.0744 186.695 37.6642 185.896 35.4979C187.112 35.4823 189.927 35.5453 190.935 35.1836L190.869 34.7448L191.454 34.072Z"/><path fill="#030301" d="M198 31.6734C196.546 31.097 192.541 30.434 191.935 29.0999L192.12 28.6604C195.259 26.7445 194.799 29.5818 197.48 30.1589C198.552 30.3376 199.393 30.3467 200.467 30.3729C199.954 30.6663 198.528 31.4219 198 31.6734Z"/><path fill="#030301" d="M191.454 34.072C192.858 34.4269 195.733 34.7959 195.741 36.6119C193.826 38.5319 191.898 35.5894 190.935 35.1836L190.869 34.7448L191.454 34.072Z"/><path fill="#FEC103" d="M135.453 24.0581L141.492 24.0046C142.374 27.9604 144.323 31.9413 144.708 36.1733C145.709 32.4604 147.164 27.6236 148.399 24.0025L154.294 24.042L152.767 28.4254C151.538 31.6965 149.21 37.8505 148.355 41.0581L141.438 41.0151C140.205 36.5786 137.043 28.7106 135.453 24.0581Z"/><path fill="#FEC103" d="M179.723 26.613C180.905 25.4619 182.892 23.5723 184.609 24.1885C185.696 25.4391 185.291 28.2434 185.213 29.9785C182.441 29.6564 180.798 29.2543 180.061 32.4781L180.055 41.0039L174.43 41.0125C174.595 35.6366 174.454 29.46 174.455 24.024C176.215 24.0684 178.654 23.512 179.841 24.3663C180.193 25.2507 179.943 25.5399 179.723 26.613Z"/><path fill="#FEC103" d="M89.4854 23.9765L95.0682 24.0635C95.0015 29.6697 95.0568 35.3867 95.0625 41.0021C93.2233 41.04 91.2818 41.0103 89.4332 41.0131L89.4854 23.9765Z"/><path fill="#FEC103" d="M90.9103 17.0097C95.6527 16.6634 97.6199 20.2534 93.2949 22.6386C90.042 23.4216 86.7643 19.7232 90.9103 17.0097Z"/></svg>